<svg width="500" height="120" viewBox="0 0 500 120" fill="none" xmlns="http://www.w3.org/2000/svg">
<mask id="mask0_1447_130" style="mask-type:alpha" maskUnits="userSpaceOnUse" x="0" y="0" width="500" height="120">
<rect width="500" height="120" fill="#D9D9D9"/>
</mask>
<g mask="url(#mask0_1447_130)">
<path d="M83.315 35.5491L86.4642 37.4046L89.6154 39.2624L105.363 48.5464L108.513 50.4019L111.662 52.2597L114.813 54.1152L117.962 52.2597L121.112 50.4019L124.261 48.5464L140.009 39.2624L143.158 37.4046L146.31 35.5491L152.608 31.8358L155.624 30.0587L152.608 28.2792L152.475 28.201L149.458 26.4237L149.325 26.3434L146.31 24.5661L146.177 24.4878L143.158 22.7085L143.026 22.6321L140.009 20.8529L139.876 20.7745L136.86 18.9953L136.727 18.917L133.71 17.1397L133.578 17.0613L130.561 15.2821L130.426 15.2037L127.41 13.4264L127.277 13.3482L124.261 11.5689L124.128 11.4906L121.112 9.71321L120.979 9.63495L117.962 7.85562L117.83 7.77737L114.835 6.01178V16.9948L117.962 18.8387L121.112 20.6963L124.261 22.5519L127.41 24.4095L136.86 29.9785V29.9804L130.561 33.6913L127.41 35.5491L124.261 37.4046V37.4065L121.112 39.2624L114.813 42.9753L108.513 39.2624L105.363 37.4065V37.4046L102.214 35.5491L99.0631 33.6913L92.7646 29.9804V29.9785L102.214 24.4095L105.363 22.5519L108.513 20.6963L111.662 18.8387L114.813 16.9831L114.835 16.9948V6.01178L114.813 6L111.795 7.77737L111.662 7.85562L108.645 9.63495L108.513 9.71321L105.496 11.4906L105.363 11.5689L102.347 13.3482L102.214 13.4264L99.1958 15.2037L99.0631 15.2821L96.0466 17.0613L95.9138 17.1397L92.8973 18.917L92.7646 18.9953L89.7481 20.7745L89.6154 20.8529L86.5989 22.6321L86.4642 22.7085L83.4477 24.4878L83.315 24.5661L80.2985 26.3434L80.1658 26.4237L77.1493 28.201L77.0165 28.2792L74 30.0587L77.0165 31.8358L83.315 35.5491Z" fill="#EC1F48"/>
<path d="M117.962 26.2661V26.2681L121.112 28.1237L130.561 33.6928L136.86 29.9814V29.9795L127.41 24.4105L124.261 22.5529L121.112 20.6973L117.962 18.8397L114.834 16.9958V24.4242L117.962 26.2661Z" fill="#EC1F48"/>
<path d="M117.962 26.2661V26.2681L121.112 28.1237L130.561 33.6928L136.86 29.9814V29.9795L127.41 24.4105L124.261 22.5529L121.112 20.6973L117.962 18.8397L114.834 16.9958V24.4242L117.962 26.2661Z" fill="black" fill-opacity="0.2"/>
<path d="M111.661 18.8395L108.512 20.6971L105.363 22.5528L102.213 24.4103L92.7637 29.9792V29.9811L99.0622 33.6925L108.512 28.1236L111.661 26.2679V26.266L114.812 24.4103L114.834 24.424V16.9956L114.812 16.9839L111.661 18.8395Z" fill="#EC1F48"/>
<path d="M111.661 18.8395L108.512 20.6971L105.363 22.5528L102.213 24.4103L92.7637 29.9792V29.9811L99.0622 33.6925L108.512 28.1236L111.661 26.2679V26.266L114.812 24.4103L114.834 24.424V16.9956L114.812 16.9839L111.661 18.8395Z" fill="black" fill-opacity="0.6"/>
<path d="M111.662 74.5384L105.363 70.8251L102.214 68.9692L99.063 67.1118L95.9138 65.254L92.7646 63.3985L89.6154 61.5412H89.6134L86.4642 59.6852L83.315 57.8297V57.8279V46.688L86.4642 48.5458L89.6154 50.4013L92.7646 52.2586L95.9138 54.1146L99.063 55.9719L105.363 59.6852L108.513 61.5412L111.662 63.3985H111.664L114.813 65.254V54.1146L111.662 52.2586L108.513 50.4013L105.363 48.5458L89.6154 39.2618L86.4642 37.404L83.315 35.5485L77.0165 31.8352L74 30.0581V59.7636L77.0165 61.5412L80.1658 63.3985L83.315 65.254L92.7646 70.8251L95.9138 72.6825L99.063 74.5384L102.214 76.3934L105.363 78.2517V81.9646V89.3907L102.214 87.5352H102.212L99.063 85.6779L89.6154 80.1086H89.6134L86.4642 78.2517L83.315 76.3953V76.3934L77.0165 72.6825H77.0146L74 70.9035V78.1734L77.0165 79.9505L77.1493 80.0284L80.1658 81.8083L80.2985 81.8867L83.315 83.6638L83.4477 83.7417L86.4642 85.5207L86.5989 85.6L89.6154 87.379L89.7481 87.455L92.7646 89.234L92.8973 89.3123L95.9138 91.0899L96.0466 91.1702L99.063 92.9473L99.1958 93.0256L102.214 94.8032L102.347 94.8835L105.363 96.6606L105.496 96.7389L108.513 98.5184L108.645 98.5968L111.662 100.374L111.795 100.452L114.813 102.232V76.3953L111.662 74.5384Z" fill="#EC1F48"/>
<path d="M111.662 74.5384L105.363 70.8251L102.214 68.9692L99.063 67.1118L95.9138 65.254L92.7646 63.3985L89.6154 61.5412H89.6134L86.4642 59.6852L83.315 57.8297V57.8279V46.688L86.4642 48.5458L89.6154 50.4013L92.7646 52.2586L95.9138 54.1146L99.063 55.9719L105.363 59.6852L108.513 61.5412L111.662 63.3985H111.664L114.813 65.254V54.1146L111.662 52.2586L108.513 50.4013L105.363 48.5458L89.6154 39.2618L86.4642 37.404L83.315 35.5485L77.0165 31.8352L74 30.0581V59.7636L77.0165 61.5412L80.1658 63.3985L83.315 65.254L92.7646 70.8251L95.9138 72.6825L99.063 74.5384L102.214 76.3934L105.363 78.2517V81.9646V89.3907L102.214 87.5352H102.212L99.063 85.6779L89.6154 80.1086H89.6134L86.4642 78.2517L83.315 76.3953V76.3934L77.0165 72.6825H77.0146L74 70.9035V78.1734L77.0165 79.9505L77.1493 80.0284L80.1658 81.8083L80.2985 81.8867L83.315 83.6638L83.4477 83.7417L86.4642 85.5207L86.5989 85.6L89.6154 87.379L89.7481 87.455L92.7646 89.234L92.8973 89.3123L95.9138 91.0899L96.0466 91.1702L99.063 92.9473L99.1958 93.0256L102.214 94.8032L102.347 94.8835L105.363 96.6606L105.496 96.7389L108.513 98.5184L108.645 98.5968L111.662 100.374L111.795 100.452L114.813 102.232V76.3953L111.662 74.5384Z" fill="black" fill-opacity="0.2"/>
<path d="M77.0165 72.686L83.315 76.3969V76.3993L86.4642 78.2543L89.6134 80.1116H89.6154L99.063 85.6809L102.212 87.5382H102.214L105.363 89.3942V81.9676L102.214 80.1116L99.063 78.2543L95.9138 76.3969L86.4642 70.8277L83.315 68.9708L80.1658 67.1149L77.0165 68.9708H77.0146L74 70.7498V70.906L77.0146 72.686H77.0165Z" fill="#EC1F48"/>
<path d="M105.365 63.4004L102.216 61.5426L99.065 59.6871L89.6173 54.1165L83.3169 57.8293V57.8312L86.4662 59.6871L89.6154 61.5426H89.6173L92.7666 63.4004L95.9158 65.2559L99.065 67.1137L102.216 68.9711L105.365 70.827L111.664 74.5403L114.815 76.3972V68.9692L108.515 65.2559L105.365 63.4004Z" fill="#EC1F48"/>
<path d="M89.6173 50.4005L86.4662 48.545L83.3169 46.6876V57.8266L89.6173 54.1138V50.4005Z" fill="#EC1F48"/>
<path d="M89.6173 50.4005L86.4662 48.545L83.3169 46.6876V57.8266L89.6173 54.1138V50.4005Z" fill="black" fill-opacity="0.6"/>
<path d="M152.615 57.8358L155.631 56.0564V30.0581L152.615 31.8352L146.314 35.5542L143.164 37.412L140.016 39.2693L124.267 48.5514L121.118 50.4069L117.969 52.2628L114.818 54.1164V102.232L117.834 100.452L117.967 100.374L120.984 98.5968L121.116 98.5184L124.133 96.7408L124.267 96.6606L127.284 94.8835L127.417 94.8051L130.433 93.0256L130.566 92.9473L133.583 91.1702L133.715 91.0918L136.732 89.3123L136.867 89.234L139.883 87.4569L140.016 87.379L143.032 85.6L143.164 85.5207L146.181 83.7436L146.314 83.6657L149.33 81.8867L149.465 81.8083L152.48 80.0307L152.613 79.9524L155.629 78.1734V63.3164L152.613 61.5388L149.463 59.6815L152.615 57.8358ZM146.314 76.4014L143.164 78.2592L140.016 80.1147L130.566 85.684L127.417 87.539L124.267 89.3973V78.2517L127.417 76.3953L130.566 74.5384L133.715 72.6825L136.867 70.8251L140.016 68.9692L146.314 65.2498V76.4014ZM146.314 57.8358L143.164 59.6908L140.016 61.5487L136.867 63.4042L133.715 65.262L130.566 67.1175L127.417 68.9753L124.267 70.8308V59.6908L130.566 55.9719L133.715 54.1164L136.867 52.2586L140.016 50.4031L143.164 48.5477L146.314 46.6898V57.8358Z" fill="#EC1F48"/>
<path d="M152.615 57.8358L155.631 56.0564V30.0581L152.615 31.8352L146.314 35.5542L143.164 37.412L140.016 39.2693L124.267 48.5514L121.118 50.4069L117.969 52.2628L114.818 54.1164V102.232L117.834 100.452L117.967 100.374L120.984 98.5968L121.116 98.5184L124.133 96.7408L124.267 96.6606L127.284 94.8835L127.417 94.8051L130.433 93.0256L130.566 92.9473L133.583 91.1702L133.715 91.0918L136.732 89.3123L136.867 89.234L139.883 87.4569L140.016 87.379L143.032 85.6L143.164 85.5207L146.181 83.7436L146.314 83.6657L149.33 81.8867L149.465 81.8083L152.48 80.0307L152.613 79.9524L155.629 78.1734V63.3164L152.613 61.5388L149.463 59.6815L152.615 57.8358ZM146.314 76.4014L143.164 78.2592L140.016 80.1147L130.566 85.684L127.417 87.539L124.267 89.3973V78.2517L127.417 76.3953L130.566 74.5384L133.715 72.6825L136.867 70.8251L140.016 68.9692L146.314 65.2498V76.4014ZM146.314 57.8358L143.164 59.6908L140.016 61.5487L136.867 63.4042L133.715 65.262L130.566 67.1175L127.417 68.9753L124.267 70.8308V59.6908L130.566 55.9719L133.715 54.1164L136.867 52.2586L140.016 50.4031L143.164 48.5477L146.314 46.6898V57.8358Z" fill="black" fill-opacity="0.3"/>
<path d="M133.706 76.3971L130.557 78.2544L127.406 80.1123L124.256 81.9677V89.3943L127.406 87.5389H127.408L130.557 85.681L140.005 80.1123L143.154 78.2544L146.305 76.399V76.3971L140.005 72.6857L133.706 76.3971Z" fill="#EC1F48"/>
<path d="M130.557 59.6871L127.406 61.5426L124.256 63.4004V70.827L127.406 68.9711L130.557 67.1137L133.706 65.2559L136.855 63.4004L140.005 61.5426L143.154 59.6871L146.305 57.8312V57.8293L140.005 54.1165L130.557 59.6871Z" fill="#EC1F48"/>
<path d="M140.009 72.6821L146.31 76.3936V65.2537L140.009 68.967V72.6821Z" fill="#EC1F48"/>
<path d="M140.009 72.6821L146.31 76.3936V65.2537L140.009 68.967V72.6821Z" fill="black" fill-opacity="0.6"/>
<path d="M143.159 48.545L140.009 50.4005V54.1138L146.31 57.8266V46.6876L143.159 48.545Z" fill="#EC1F48"/>
<path d="M143.159 48.545L140.009 50.4005V54.1138L146.31 57.8266V46.6876L143.159 48.545Z" fill="black" fill-opacity="0.6"/>
<g filter="url(#filter0_f_1447_130)">
<path d="M114.814 112.496C137.356 112.496 155.629 111.922 155.629 111.213C155.629 110.504 137.356 109.93 114.814 109.93C92.2732 109.93 74 110.504 74 111.213C74 111.922 92.2732 112.496 114.814 112.496Z" fill="url(#paint0_radial_1447_130)"/>
</g>
<path d="M186.576 70.1567C188.058 70.1567 189.27 70.0445 190.213 69.8198C191.201 69.5505 191.987 69.2137 192.571 68.8097C193.155 68.3603 193.559 67.8442 193.783 67.2601C194.008 66.6765 194.12 66.0254 194.12 65.3066C194.12 63.78 193.402 62.5222 191.965 61.5347C190.528 60.5016 188.058 59.4015 184.555 58.2338C183.028 57.6947 181.501 57.0886 179.974 56.4149C178.447 55.6966 177.078 54.8207 175.865 53.7877C174.653 52.71 173.665 51.4302 172.901 49.9481C172.138 48.4211 171.756 46.5801 171.756 44.4244C171.756 42.2687 172.16 40.3377 172.968 38.6314C173.777 36.8801 174.922 35.398 176.404 34.1853C177.886 32.973 179.682 32.0521 181.793 31.4234C183.904 30.7502 186.284 30.4133 188.933 30.4133C192.077 30.4133 194.794 30.7502 197.084 31.4234C199.374 32.0971 201.261 32.8384 202.742 33.6467L199.711 41.9323C198.409 41.2586 196.949 40.6745 195.333 40.1805C193.761 39.6419 191.852 39.3722 189.607 39.3722C187.092 39.3722 185.273 39.7315 184.15 40.4503C183.073 41.124 182.534 42.1791 182.534 43.6161C182.534 44.4694 182.736 45.1877 183.14 45.7718C183.544 46.3554 184.106 46.8945 184.824 47.3885C185.587 47.8375 186.441 48.2639 187.384 48.6683C188.372 49.0277 189.45 49.4091 190.617 49.8135C193.042 50.7115 195.153 51.6099 196.949 52.5078C198.746 53.3612 200.228 54.3717 201.395 55.5394C202.608 56.7067 203.506 58.0766 204.09 59.6482C204.674 61.2204 204.966 63.1288 204.966 65.3742C204.966 69.7302 203.439 73.1207 200.385 75.5458C197.331 77.9257 192.728 79.116 186.576 79.116C184.51 79.116 182.646 78.9813 180.985 78.712C179.323 78.4873 177.841 78.1955 176.539 77.8361C175.281 77.4768 174.181 77.0954 173.238 76.6909C172.34 76.287 171.576 75.9051 170.948 75.5458L173.911 67.1931C175.304 67.9564 177.01 68.6526 179.031 69.2812C181.097 69.8649 183.612 70.1567 186.576 70.1567ZM209.346 33.916L219.383 32.2993V42.7406H231.441V51.0933H219.383V63.5553C219.383 65.666 219.742 67.3502 220.461 68.6075C221.224 69.8649 222.728 70.4935 224.974 70.4935C226.052 70.4935 227.152 70.4039 228.275 70.2242C229.442 69.9995 230.498 69.7077 231.441 69.3483L232.855 77.1624C231.643 77.6565 230.296 78.0829 228.814 78.4423C227.332 78.8016 225.513 78.9813 223.357 78.9813C220.618 78.9813 218.35 78.622 216.554 77.9037C214.757 77.1399 213.32 76.1073 212.243 74.805C211.165 73.4576 210.401 71.8409 209.952 69.9549C209.548 68.0685 209.346 65.9803 209.346 63.6899V33.916ZM249.143 71.1672C250.131 71.1672 251.075 71.1447 251.973 71.1001C252.871 71.0551 253.589 70.9875 254.128 70.8979V63.286C253.724 63.1959 253.118 63.1063 252.31 63.0162C251.501 62.9266 250.76 62.8816 250.087 62.8816C249.143 62.8816 248.245 62.9492 247.392 63.0838C246.584 63.1734 245.865 63.3756 245.237 63.6899C244.608 64.0043 244.114 64.4312 243.755 64.9698C243.395 65.5088 243.216 66.1825 243.216 66.9909C243.216 68.5625 243.732 69.6627 244.765 70.2918C245.843 70.8754 247.302 71.1672 249.143 71.1672ZM248.335 41.7972C251.299 41.7972 253.769 42.134 255.745 42.8077C257.721 43.4814 259.293 44.4469 260.461 45.7042C261.673 46.962 262.526 48.4886 263.02 50.285C263.514 52.0814 263.761 54.0799 263.761 56.2802V77.1624C262.324 77.4768 260.325 77.8361 257.766 78.2401C255.206 78.6895 252.107 78.9138 248.47 78.9138C246.18 78.9138 244.092 78.712 242.205 78.3076C240.364 77.9037 238.77 77.2525 237.423 76.3541C236.075 75.4111 235.042 74.1984 234.324 72.7168C233.605 71.2348 233.246 69.4159 233.246 67.2601C233.246 65.1945 233.65 63.4432 234.459 62.0062C235.312 60.5692 236.435 59.424 237.827 58.5706C239.219 57.7172 240.813 57.1111 242.61 56.7517C244.406 56.3478 246.269 56.1456 248.2 56.1456C249.503 56.1456 250.648 56.2127 251.636 56.3478C252.669 56.4374 253.5 56.572 254.128 56.7517V55.8087C254.128 54.102 253.612 52.7325 252.579 51.6995C251.546 50.6669 249.75 50.1504 247.19 50.1504C245.484 50.1504 243.799 50.285 242.138 50.5543C240.476 50.779 239.039 51.1159 237.827 51.5648L236.547 43.4814C237.131 43.3017 237.849 43.1221 238.702 42.9424C239.6 42.7181 240.566 42.5384 241.599 42.4038C242.632 42.2241 243.71 42.0895 244.832 41.9994C246 41.8647 247.168 41.7972 248.335 41.7972ZM268.459 60.4566C268.459 57.8969 268.863 55.4944 269.672 53.2491C270.525 50.9587 271.737 48.9826 273.309 47.3209C274.881 45.6146 276.79 44.2672 279.035 43.2792C281.28 42.2912 283.84 41.7972 286.715 41.7972C288.6 41.7972 290.329 41.9769 291.901 42.3362C293.473 42.6506 295 43.1221 296.482 43.7507L294.393 51.767C293.451 51.4077 292.417 51.0933 291.295 50.824C290.172 50.5543 288.915 50.4196 287.523 50.4196C284.559 50.4196 282.336 51.3401 280.854 53.1815C279.417 55.0229 278.698 57.4479 278.698 60.4566C278.698 63.6454 279.372 66.115 280.719 67.8668C282.111 69.6181 284.514 70.4935 287.927 70.4935C289.14 70.4935 290.442 70.3814 291.834 70.1567C293.226 69.9324 294.506 69.573 295.673 69.079L297.088 77.2971C295.921 77.7911 294.461 78.218 292.71 78.5769C290.958 78.9363 289.027 79.116 286.916 79.116C283.683 79.116 280.898 78.6445 278.564 77.7015C276.228 76.7135 274.297 75.3886 272.771 73.7269C271.288 72.0656 270.188 70.1121 269.47 67.8668C268.796 65.5764 268.459 63.1063 268.459 60.4566ZM311.167 55.5394C312.155 54.4613 313.165 53.3387 314.198 52.171C315.276 51.0037 316.309 49.8585 317.297 48.7359C318.285 47.5682 319.205 46.468 320.059 45.435C320.957 44.4019 321.72 43.5039 322.349 42.7406H334.272C331.892 45.48 329.557 48.1067 327.266 50.6218C325.021 53.0919 322.551 55.6516 319.856 58.3013C321.204 59.5136 322.596 60.9731 324.033 62.6799C325.47 64.3411 326.862 66.0704 328.209 67.8668C329.557 69.6627 330.792 71.459 331.914 73.2554C333.037 75.0517 333.98 76.6909 334.743 78.173H323.224C322.506 77.0053 321.675 75.7254 320.732 74.3335C319.834 72.896 318.868 71.4815 317.835 70.0896C316.803 68.6526 315.703 67.2827 314.535 65.9803C313.412 64.678 312.29 63.5778 311.167 62.6799V78.173H301.13V27.5166L311.167 25.8999V55.5394ZM360.145 60.1873C360.145 53.7206 357.765 50.4872 353.005 50.4872C351.972 50.4872 350.939 50.6218 349.906 50.8911C348.918 51.1609 348.11 51.4977 347.481 51.9017V70.1567C347.975 70.2467 348.604 70.3363 349.368 70.4264C350.131 70.471 350.962 70.4935 351.86 70.4935C354.599 70.4935 356.665 69.5505 358.057 67.6646C359.449 65.7781 360.145 63.286 360.145 60.1873ZM370.385 60.4566C370.385 63.286 369.958 65.8457 369.105 68.136C368.296 70.4264 367.106 72.38 365.535 73.9966C363.963 75.6133 362.031 76.8706 359.741 77.7686C357.451 78.622 354.846 79.0489 351.927 79.0489C350.715 79.0489 349.435 78.9813 348.087 78.8467C346.785 78.7566 345.483 78.622 344.181 78.4423C342.923 78.2626 341.711 78.0609 340.543 77.8361C339.375 77.5668 338.343 77.2971 337.444 77.0278V27.5166L347.481 25.8999V43.549C348.604 43.055 349.772 42.6731 350.984 42.4038C352.197 42.134 353.499 41.9994 354.891 41.9994C357.406 41.9994 359.629 42.4484 361.56 43.3468C363.491 44.2002 365.108 45.435 366.41 47.0516C367.712 48.6683 368.7 50.6218 369.374 52.9122C370.048 55.1576 370.385 57.6722 370.385 60.4566ZM385.441 78.173H375.404V42.7406H385.441V78.173ZM386.384 32.5015C386.384 34.3424 385.778 35.802 384.565 36.8801C383.398 37.9126 382.005 38.4292 380.389 38.4292C378.772 38.4292 377.357 37.9126 376.145 36.8801C374.978 35.802 374.393 34.3424 374.393 32.5015C374.393 30.6601 374.978 29.2231 376.145 28.1902C377.357 27.1124 378.772 26.5735 380.389 26.5735C382.005 26.5735 383.398 27.1124 384.565 28.1902C385.778 29.2231 386.384 30.6601 386.384 32.5015ZM406.328 78.8467C403.409 78.8016 401.028 78.4873 399.187 77.9037C397.391 77.3196 395.954 76.5113 394.876 75.4787C393.843 74.4006 393.125 73.1207 392.721 71.6387C392.361 70.1121 392.182 68.4053 392.182 66.5194V27.5166L402.219 25.8999V64.4983C402.219 65.3967 402.286 66.205 402.421 66.9233C402.555 67.642 402.803 68.2482 403.161 68.7422C403.566 69.2362 404.127 69.6406 404.846 69.9549C405.564 70.2693 406.529 70.471 407.742 70.5611L406.328 78.8467ZM424.947 78.8467C422.028 78.8016 419.648 78.4873 417.807 77.9037C416.011 77.3196 414.573 76.5113 413.495 75.4787C412.463 74.4006 411.744 73.1207 411.34 71.6387C410.981 70.1121 410.801 68.4053 410.801 66.5194V27.5166L420.838 25.8999V64.4983C420.838 65.3967 420.906 66.205 421.04 66.9233C421.175 67.642 421.422 68.2482 421.781 68.7422C422.185 69.2362 422.747 69.6406 423.465 69.9549C424.184 70.2693 425.149 70.471 426.362 70.5611L424.947 78.8467Z" fill="#383838"/>
<path d="M355.311 110.781C355.545 110.802 355.855 110.824 356.239 110.845C356.623 110.845 357.145 110.845 357.807 110.845C360.516 110.845 362.532 110.162 363.855 108.797C365.199 107.41 365.871 105.48 365.871 103.005C365.871 100.488 365.22 98.5571 363.919 97.2131C362.617 95.8691 360.601 95.1971 357.871 95.1971C356.676 95.1971 355.823 95.2291 355.311 95.2931V110.781ZM370.095 103.005C370.095 104.925 369.796 106.6 369.199 108.029C368.601 109.437 367.748 110.621 366.639 111.581C365.551 112.52 364.228 113.224 362.671 113.693C361.135 114.141 359.428 114.365 357.551 114.365C356.655 114.365 355.641 114.322 354.511 114.237C353.38 114.173 352.303 114.024 351.279 113.789V92.2531C352.303 92.0185 353.391 91.8691 354.543 91.8051C355.695 91.7411 356.719 91.7091 357.615 91.7091C359.471 91.7091 361.167 91.9331 362.703 92.3811C364.239 92.8078 365.551 93.4905 366.639 94.4291C367.748 95.3465 368.601 96.5198 369.199 97.9491C369.796 99.3571 370.095 101.042 370.095 103.005ZM389.441 105.725C389.441 107.048 389.249 108.253 388.865 109.341C388.481 110.429 387.937 111.357 387.233 112.125C386.529 112.893 385.676 113.49 384.673 113.917C383.692 114.344 382.604 114.557 381.409 114.557C380.215 114.557 379.127 114.344 378.145 113.917C377.164 113.49 376.321 112.893 375.617 112.125C374.913 111.357 374.359 110.429 373.953 109.341C373.569 108.253 373.377 107.048 373.377 105.725C373.377 104.402 373.569 103.208 373.953 102.141C374.359 101.053 374.913 100.125 375.617 99.3571C376.343 98.5891 377.196 98.0025 378.177 97.5971C379.159 97.1705 380.236 96.9571 381.409 96.9571C382.583 96.9571 383.66 97.1705 384.641 97.5971C385.644 98.0025 386.497 98.5891 387.201 99.3571C387.905 100.125 388.449 101.053 388.833 102.141C389.239 103.208 389.441 104.402 389.441 105.725ZM385.473 105.725C385.473 104.061 385.111 102.749 384.385 101.789C383.681 100.808 382.689 100.317 381.409 100.317C380.129 100.317 379.127 100.808 378.401 101.789C377.697 102.749 377.345 104.061 377.345 105.725C377.345 107.41 377.697 108.744 378.401 109.725C379.127 110.706 380.129 111.197 381.409 111.197C382.689 111.197 383.681 110.706 384.385 109.725C385.111 108.744 385.473 107.41 385.473 105.725ZM392.502 105.757C392.502 104.52 392.694 103.368 393.078 102.301C393.462 101.213 394.006 100.274 394.71 99.4851C395.436 98.6958 396.31 98.0771 397.334 97.6291C398.358 97.1811 399.51 96.9571 400.79 96.9571C402.369 96.9571 403.862 97.2451 405.27 97.8211L404.438 100.989C403.99 100.797 403.478 100.637 402.902 100.509C402.348 100.381 401.75 100.317 401.11 100.317C399.596 100.317 398.444 100.797 397.654 101.757C396.865 102.696 396.47 104.029 396.47 105.757C396.47 107.421 396.844 108.744 397.59 109.725C398.337 110.685 399.596 111.165 401.366 111.165C402.028 111.165 402.678 111.101 403.318 110.973C403.958 110.845 404.513 110.685 404.982 110.493L405.526 113.693C405.1 113.906 404.449 114.098 403.574 114.269C402.721 114.44 401.836 114.525 400.918 114.525C399.489 114.525 398.241 114.312 397.174 113.885C396.129 113.437 395.254 112.829 394.55 112.061C393.868 111.272 393.356 110.344 393.014 109.277C392.673 108.189 392.502 107.016 392.502 105.757ZM412.716 111.325C413.74 111.325 414.487 111.208 414.956 110.973C415.425 110.717 415.66 110.29 415.66 109.693C415.66 109.138 415.404 108.68 414.892 108.317C414.401 107.954 413.58 107.56 412.428 107.133C411.724 106.877 411.073 106.61 410.476 106.333C409.9 106.034 409.399 105.693 408.972 105.309C408.545 104.925 408.204 104.466 407.948 103.933C407.713 103.378 407.596 102.706 407.596 101.917C407.596 100.381 408.161 99.1758 409.292 98.3011C410.423 97.4051 411.959 96.9571 413.9 96.9571C414.881 96.9571 415.82 97.0531 416.716 97.2451C417.612 97.4158 418.284 97.5865 418.732 97.7571L418.028 100.893C417.601 100.701 417.057 100.53 416.396 100.381C415.735 100.21 414.967 100.125 414.092 100.125C413.303 100.125 412.663 100.264 412.172 100.541C411.681 100.797 411.436 101.202 411.436 101.757C411.436 102.034 411.479 102.28 411.564 102.493C411.671 102.706 411.841 102.909 412.076 103.101C412.311 103.272 412.62 103.453 413.004 103.645C413.388 103.816 413.857 103.997 414.412 104.189C415.329 104.53 416.108 104.872 416.748 105.213C417.388 105.533 417.911 105.906 418.316 106.333C418.743 106.738 419.052 107.208 419.244 107.741C419.436 108.274 419.532 108.914 419.532 109.661C419.532 111.261 418.935 112.477 417.74 113.309C416.567 114.12 414.881 114.525 412.684 114.525C411.212 114.525 410.028 114.397 409.132 114.141C408.236 113.906 407.607 113.714 407.244 113.565L407.916 110.333C408.492 110.568 409.175 110.792 409.964 111.005C410.775 111.218 411.692 111.325 412.716 111.325Z" fill="black"/>
</g>
<defs>
<filter id="filter0_f_1447_130" x="64" y="99.9301" width="101.629" height="22.5663" filterUnits="userSpaceOnUse" color-interpolation-filters="sRGB">
<feFlood flood-opacity="0" result="BackgroundImageFix"/>
<feBlend mode="normal" in="SourceGraphic" in2="BackgroundImageFix" result="shape"/>
<feGaussianBlur stdDeviation="5" result="effect1_foregroundBlur_1447_130"/>
</filter>
<radialGradient id="paint0_radial_1447_130" cx="0" cy="0" r="1" gradientUnits="userSpaceOnUse" gradientTransform="translate(114.814 111.213) scale(40.8144 1.28309)">
<stop stop-color="#737373"/>
<stop offset="1" stop-color="#D9D9D9"/>
</radialGradient>
</defs>
</svg>
