<svg width="48" height="48" viewBox="0 0 48 48" fill="none" xmlns="http://www.w3.org/2000/svg">
<path d="M9.59747 15.5108L11.0374 16.3592L12.4782 17.2085L19.6787 21.4535L21.1187 22.3019L22.5586 23.1513L23.9994 23.9997L25.4393 23.1513L26.8792 22.3019L28.3192 21.4535L35.5197 17.2085L36.9597 16.3592L38.4005 15.5108L41.2802 13.813L42.6595 13.0003L41.2802 12.1868L41.2195 12.151L39.8402 11.3383L39.7795 11.3016L38.4005 10.489L38.3398 10.4532L36.9597 9.63962L36.899 9.60471L35.5197 8.79118L35.459 8.75536L34.0797 7.94183L34.019 7.90605L32.6398 7.09339L32.579 7.05758L31.1999 6.24404L31.1383 6.20823L29.7591 5.39558L29.6984 5.35979L28.3192 4.54626L28.2585 4.51044L26.8792 3.69779L26.8185 3.662L25.4393 2.84844L25.3786 2.81265L24.0092 2.00537V7.02716L25.4393 7.87023L26.8792 8.71958L28.3192 9.56802L29.7591 10.4174L34.0797 12.9636V12.9645L31.1999 14.6614L29.7591 15.5108L28.3192 16.3592V16.3601L26.8792 17.2085L23.9994 18.9063L21.1187 17.2085L19.6787 16.3601V16.3592L18.2388 15.5108L16.798 14.6614L13.9181 12.9645V12.9636L18.2388 10.4174L19.6787 9.56802L21.1187 8.71958L22.5586 7.87023L23.9994 7.02179L24.0092 7.02716V2.00537L23.9994 2L22.6193 2.81265L22.5586 2.84844L21.1793 3.662L21.1187 3.69779L19.7394 4.51044L19.6787 4.54626L18.2995 5.35979L18.2388 5.39558L16.8587 6.20823L16.798 6.24404L15.4188 7.05758L15.358 7.09339L13.9788 7.90605L13.9181 7.94183L12.5389 8.75536L12.4782 8.79118L11.099 9.60471L11.0374 9.63962L9.65816 10.4532L9.59747 10.489L8.21824 11.3016L8.15755 11.3383L6.77833 12.151L6.71761 12.1868L5.33838 13.0003L6.71761 13.813L9.59747 15.5108Z" fill="#EC1F48"/>
<path d="M25.4394 11.2661V11.267L26.8793 12.1155L31.2 14.6617L34.08 12.9648V12.9639L29.7592 10.4177L28.3193 9.56833L26.8793 8.71989L25.4394 7.87054L24.0093 7.02747V10.424L25.4394 11.2661Z" fill="#EC1F48"/>
<path d="M25.4394 11.2661V11.267L26.8793 12.1155L31.2 14.6617L34.08 12.9648V12.9639L29.7592 10.4177L28.3193 9.56833L26.8793 8.71989L25.4394 7.87054L24.0093 7.02747V10.424L25.4394 11.2661Z" fill="black" fill-opacity="0.2"/>
<path d="M22.5584 7.87053L21.1185 8.71988L19.6786 9.56835L18.2386 10.4177L13.918 12.9639V12.9648L16.7978 14.6617L21.1185 12.1155L22.5584 11.267V11.2661L23.9992 10.4177L24.0091 10.4239V7.02746L23.9992 7.02209L22.5584 7.87053Z" fill="#EC1F48"/>
<path d="M22.5584 7.87053L21.1185 8.71988L19.6786 9.56835L18.2386 10.4177L13.918 12.9639V12.9648L16.7978 14.6617L21.1185 12.1155L22.5584 11.267V11.2661L23.9992 10.4177L24.0091 10.4239V7.02746L23.9992 7.02209L22.5584 7.87053Z" fill="black" fill-opacity="0.6"/>
<path d="M22.5586 33.3377L19.6787 31.6399L18.2388 30.7912L16.798 29.942L15.3581 29.0925L13.9181 28.2442L12.4782 27.395H12.4773L11.0374 26.5464L9.59747 25.6981V25.6972V20.6037L11.0374 21.453L12.4782 22.3015L13.9181 23.1508L15.3581 23.9993L16.798 24.8486L19.6787 26.5464L21.1187 27.395L22.5586 28.2442H22.5595L23.9994 29.0925V23.9993L22.5586 23.1508L21.1187 22.3015L19.6787 21.453L12.4782 17.2081L11.0374 16.3588L9.59747 15.5103L6.71761 13.8125L5.33838 12.9999V26.5822L6.71761 27.395L8.15755 28.2442L9.59747 29.0925L13.9181 31.6399L15.3581 32.4891L16.798 33.3377L18.2388 34.186L19.6787 35.0355V36.7333V40.1286L18.2388 39.2803H18.2379L16.798 38.4311L12.4782 35.8847H12.4773L11.0374 35.0355L9.59747 34.1869V34.186L6.71761 32.4891H6.71673L5.33838 31.6756V34.9997L6.71761 35.8122L6.77833 35.848L8.15755 36.6617L8.21824 36.6975L9.59747 37.5101L9.65816 37.5458L11.0374 38.3593L11.099 38.3953L12.4782 39.2088L12.5389 39.2437L13.9181 40.0571L13.9788 40.0929L15.3581 40.9057L15.4188 40.9424L16.798 41.7549L16.8587 41.7907L18.2388 42.6035L18.2995 42.6402L19.6787 43.4527L19.7394 43.4885L21.1187 44.3022L21.1794 44.338L22.5586 45.1505L22.6193 45.1863L23.9994 46V34.1869L22.5586 33.3377Z" fill="#EC1F48"/>
<path d="M22.5586 33.3377L19.6787 31.6399L18.2388 30.7912L16.798 29.942L15.3581 29.0925L13.9181 28.2442L12.4782 27.395H12.4773L11.0374 26.5464L9.59747 25.6981V25.6972V20.6037L11.0374 21.453L12.4782 22.3015L13.9181 23.1508L15.3581 23.9993L16.798 24.8486L19.6787 26.5464L21.1187 27.395L22.5586 28.2442H22.5595L23.9994 29.0925V23.9993L22.5586 23.1508L21.1187 22.3015L19.6787 21.453L12.4782 17.2081L11.0374 16.3588L9.59747 15.5103L6.71761 13.8125L5.33838 12.9999V26.5822L6.71761 27.395L8.15755 28.2442L9.59747 29.0925L13.9181 31.6399L15.3581 32.4891L16.798 33.3377L18.2388 34.186L19.6787 35.0355V36.7333V40.1286L18.2388 39.2803H18.2379L16.798 38.4311L12.4782 35.8847H12.4773L11.0374 35.0355L9.59747 34.1869V34.186L6.71761 32.4891H6.71673L5.33838 31.6756V34.9997L6.71761 35.8122L6.77833 35.848L8.15755 36.6617L8.21824 36.6975L9.59747 37.5101L9.65816 37.5458L11.0374 38.3593L11.099 38.3953L12.4782 39.2088L12.5389 39.2437L13.9181 40.0571L13.9788 40.0929L15.3581 40.9057L15.4188 40.9424L16.798 41.7549L16.8587 41.7907L18.2388 42.6035L18.2995 42.6402L19.6787 43.4527L19.7394 43.4885L21.1187 44.3022L21.1794 44.338L22.5586 45.1505L22.6193 45.1863L23.9994 46V34.1869L22.5586 33.3377Z" fill="black" fill-opacity="0.2"/>
<path d="M6.71761 32.4905L9.59747 34.1875V34.1884L11.0374 35.0367L12.4773 35.8859H12.4782L16.798 38.4323L18.2379 39.2815H18.2388L19.6787 40.1301V36.7345L18.2388 35.8859L16.798 35.0367L15.3581 34.1875L11.0374 31.6411L9.59747 30.7919L8.15755 29.9432L6.71761 30.7919H6.71673L5.33838 31.6053V31.6768L6.71673 32.4905H6.71761Z" fill="#EC1F48"/>
<path d="M19.6809 28.245L18.241 27.3955L16.8001 26.5472L12.4804 24L9.59961 25.6977V25.6986L11.0396 26.5472L12.4795 27.3955H12.4804L13.9203 28.245L15.3602 29.0933L16.8001 29.9428L18.241 30.792L19.6809 31.6406L22.5607 33.3384L24.0015 34.1876V30.7911L21.1208 29.0933L19.6809 28.245Z" fill="#EC1F48"/>
<path d="M12.4804 22.3015L11.0396 21.453L9.59961 20.6036V25.6969L12.4804 23.9992V22.3015Z" fill="#EC1F48"/>
<path d="M12.4804 22.3015L11.0396 21.453L9.59961 20.6036V25.6969L12.4804 23.9992V22.3015Z" fill="black" fill-opacity="0.6"/>
<path d="M41.2818 25.7007L42.661 24.8872V12.9999L41.2818 13.8125L38.4009 15.513L36.961 16.3624L35.5213 17.2117L28.3206 21.4557L26.8807 22.3042L25.4408 23.1526L24 24.0002V46L25.3792 45.1863L25.4399 45.1505L26.8191 44.338L26.8798 44.3022L28.2591 43.4894L28.3206 43.4527L29.6999 42.6402L29.7605 42.6044L31.1398 41.7907L31.2005 41.7549L32.5797 40.9424L32.6404 40.9066L34.0197 40.0929L34.0813 40.0571L35.4606 39.2445L35.5213 39.2088L36.9002 38.3953L36.961 38.3593L38.3402 37.5467L38.4009 37.5109L39.7802 36.6975L39.8418 36.6617L41.2202 35.8489L41.2809 35.8131L42.6601 34.9997V28.2067L41.2809 27.3938L39.8409 26.5446L41.2818 25.7007ZM38.4009 34.1895L36.961 35.039L35.5213 35.8873L31.2005 38.4338L29.7605 39.2821L28.3206 40.1316V35.0355L29.7605 34.1869L31.2005 33.3377L32.6404 32.4891L34.0813 31.6399L35.5213 30.7912L38.4009 29.0908V34.1895ZM38.4009 25.7007L36.961 26.549L35.5213 27.3985L34.0813 28.2469L32.6404 29.0964L31.2005 29.9447L29.7605 30.7942L28.3206 31.6425V26.549L31.2005 24.8486L32.6404 24.0002L34.0813 23.1508L35.5213 22.3024L36.961 21.4539L38.4009 20.6046V25.7007Z" fill="#EC1F48"/>
<path d="M41.2818 25.7007L42.661 24.8872V12.9999L41.2818 13.8125L38.4009 15.513L36.961 16.3624L35.5213 17.2117L28.3206 21.4557L26.8807 22.3042L25.4408 23.1526L24 24.0002V46L25.3792 45.1863L25.4399 45.1505L26.8191 44.338L26.8798 44.3022L28.2591 43.4894L28.3206 43.4527L29.6999 42.6402L29.7605 42.6044L31.1398 41.7907L31.2005 41.7549L32.5797 40.9424L32.6404 40.9066L34.0197 40.0929L34.0813 40.0571L35.4606 39.2445L35.5213 39.2088L36.9002 38.3953L36.961 38.3593L38.3402 37.5467L38.4009 37.5109L39.7802 36.6975L39.8418 36.6617L41.2202 35.8489L41.2809 35.8131L42.6601 34.9997V28.2067L41.2809 27.3938L39.8409 26.5446L41.2818 25.7007ZM38.4009 34.1895L36.961 35.039L35.5213 35.8873L31.2005 38.4338L29.7605 39.2821L28.3206 40.1316V35.0355L29.7605 34.1869L31.2005 33.3377L32.6404 32.4891L34.0813 31.6399L35.5213 30.7912L38.4009 29.0908V34.1895ZM38.4009 25.7007L36.961 26.549L35.5213 27.3985L34.0813 28.2469L32.6404 29.0964L31.2005 29.9447L29.7605 30.7942L28.3206 31.6425V26.549L31.2005 24.8486L32.6404 24.0002L34.0813 23.1508L35.5213 22.3024L36.961 21.4539L38.4009 20.6046V25.7007Z" fill="black" fill-opacity="0.3"/>
<path d="M32.638 34.1875L31.1981 35.0367L29.7573 35.8862L28.3174 36.7346V40.1302L29.7573 39.2819H29.7582L31.1981 38.4324L35.5179 35.8862L36.9579 35.0367L38.3988 34.1884V34.1875L35.5179 32.4906L32.638 34.1875Z" fill="#EC1F48"/>
<path d="M31.1981 26.5472L29.7573 27.3955L28.3174 28.245V31.6406L29.7573 30.792L31.1981 29.9428L32.638 29.0933L34.078 28.245L35.5179 27.3955L36.9579 26.5472L38.3988 25.6986V25.6977L35.5179 24L31.1981 26.5472Z" fill="#EC1F48"/>
<path d="M35.5186 32.4893L38.3994 34.1862V29.0928L35.5186 30.7906V32.4893Z" fill="#EC1F48"/>
<path d="M35.5186 32.4893L38.3994 34.1862V29.0928L35.5186 30.7906V32.4893Z" fill="black" fill-opacity="0.6"/>
<path d="M36.9585 21.453L35.5186 22.3015V23.9992L38.3994 25.6969V20.6036L36.9585 21.453Z" fill="#EC1F48"/>
<path d="M36.9585 21.453L35.5186 22.3015V23.9992L38.3994 25.6969V20.6036L36.9585 21.453Z" fill="black" fill-opacity="0.6"/>
</svg>
